<svg xmlns="http://www.w3.org/2000/svg" width="48" height="48" viewBox="0 0 150 150">
  <path fill="#e95e27" d="M78.41 11.84c-1.36-.68-2.86-.68-4.23 0L24.13 40.76c-1.36.82-2.05 2.18-2.18 3.68v57.97c.14 1.5.82 2.86 2.05 3.68l50.19 28.92c1.09.68 2.18 1.23 2.18 1.23s.95.55 2.18 1.23l8.46 4.91c1.36.68 2.86.68 4.23 0l10.5-6.14c1.23-.82 2.05-2.18 2.05-3.68v-9.68c.14-1.5.82-2.86 2.05-3.68l22.64-13.09c1.23-.82 2.05-2.18 2.05-3.68V44.44c-.14-1.5-.82-2.86-2.05-3.68L78.41 11.84Zm29.33 77.61c-.14 1.5-.82 2.86-2.05 3.68l-27.28 15.55c-1.36.68-2.86.68-4.23 0L47.04 93.13c-1.23-.82-2.05-2.18-2.05-3.68V58.08c.14-1.5.82-2.86 2.05-3.68l27.14-15.69c1.36-.68 2.86-.68 4.23 0l27.14 15.69c1.23.82 2.05 2.18 2.05 3.68l.14 31.37Z" />
</svg>
