<svg xmlns="http://www.w3.org/2000/svg" width="112" height="46" fill="none"><g fill="#E85D27"><path d="M18.71.424c-.387-.239-1.017-.239-1.404 0L.694 10.564c-.387.238-.694.818-.694 1.28V32.12c0 .478.307 1.041.694 1.28L17.306 43.54c.387.239.71.427.71.41.016 0 .34.187.71.409l2.793 1.707c.388.239 1.017.239 1.405 0l3.487-2.134c.387-.239.694-.819.694-1.28v-3.414c0-.477.307-1.04.694-1.28l7.507-4.574c.387-.24.694-.802.694-1.28v-20.26c0-.479-.307-1.042-.694-1.28L18.71.423Zm9.686 27.19c0 .479-.306 1.042-.694 1.28l-8.992 5.497c-.387.239-1.017.239-1.404 0l-8.992-5.496c-.388-.24-.694-.802-.694-1.28V16.623c0-.478.306-1.042.694-1.28l8.992-5.497c.387-.239 1.017-.239 1.404 0l8.992 5.496c.388.24.694.803.694 1.28v10.993ZM45.138 30.49c0 .566.433 1.015.978 1.015h2.629c.545 0 .978-.45.978-1.015V12.834c0-.565-.433-1.015-.978-1.015h-2.629c-.545 0-.978.45-.978 1.015V30.49ZM112.138 4.98h-4.584v26.526h4.584V4.98ZM81.347 11.837v16.025h-4.376V11.837h-4.536v16.258c0 1.88 1.956 3.41 4.344 3.41l9.136.034V11.837h-4.568ZM57.353 11.837c-1.924 0-3.366 1.131-3.366 2.629V28.16c0 1.914 1.891 3.345 4.407 3.345h5.61v5.475h4.537V11.853H57.353v-.016Zm6.651 3.56v12.481h-5.433v-12.48h5.433ZM99.202 11.837h-8.046v3.56h7.533c.08 0 .145.017.273.034.032 0 .048.017.064.017v2.895h-5.61c-2.436 0-4.344 1.448-4.344 3.312v6.54c0 1.847 1.908 3.31 4.344 3.31h10.194V15.182c-.016-1.913-1.907-3.344-4.408-3.344Zm-.192 16.108-5.402.017v-6.024h5.418l-.016 6.007Z"/></g></svg>
